<?xml version="1.0" encoding="iso-8859-1"?>
<!-- Generator: Adobe Illustrator 19.0.0, SVG Export Plug-In . SVG Version: 6.00 Build 0)  -->
<svg version="1.1" id="Layer_1" xmlns="http://www.w3.org/2000/svg" xmlns:xlink="http://www.w3.org/1999/xlink" x="0px" y="0px"
	 viewBox="0 0 512 512" style="enable-background:new 0 0 512 512;" xml:space="preserve">
<circle style="fill:#FFC91B;" cx="256" cy="256" r="256"/>
<path style="fill:#EAA22F;" d="M507.454,304.176l-155.486-156.51l-4.206,6.409l-49.528,2.586v13.96v6.94l-59.402,1.939
	l-29.089-29.091l-33.113,5.961l-1.939-1.939l-32.468,1.357l31.534,32.332l-84.687,79.155l-5.141,47.306l195.424,196.346
	C393.699,500.586,486.334,415.066,507.454,304.176z"/>
<circle style="fill:#FFEDB5;" cx="137.051" cy="264.189" r="66.37"/>
<circle style="fill:#FEE187;" cx="364.606" cy="264.189" r="66.37"/>
<path style="fill:#386895;" d="M364.606,190.923c-11.271,0-21.952,2.563-31.501,7.13l-30.56-40.746h43.098
	c3.808,0,6.896-3.088,6.896-6.896s-3.088-6.896-6.896-6.896h-56.889c-2.612,0-4.999,1.476-6.168,3.812
	c-1.167,2.336-0.915,5.132,0.652,7.221l13.059,17.411H181.872v-14.653h21.549c3.808,0,6.896-3.088,6.896-6.896
	s-3.088-6.896-6.896-6.896h-56.889c-3.808,0-6.896,3.088-6.896,6.896s3.088,6.896,6.896,6.896h21.549v20.43l-5.879,17.636
	c-7.847-2.877-16.32-4.448-25.152-4.448c-40.4,0-73.266,32.866-73.266,73.266s32.866,73.266,73.266,73.266
	c38.072,0,69.444-29.194,72.932-66.37h43.432v14.653h-21.549c-3.808,0-6.896,3.088-6.896,6.896s3.088,6.896,6.896,6.896h28.444
	c3.808,0,6.896-3.088,6.896-6.896v-21.549h24.469c3.487,37.176,34.859,66.37,72.932,66.37c40.4,0,73.266-32.866,73.266-73.266
	S405.004,190.923,364.606,190.923z M137.051,323.663c-32.794,0-59.475-26.681-59.475-59.475s26.681-59.475,59.475-59.475
	c7.309,0,14.312,1.333,20.785,3.756L139.99,262.01c-0.7,2.103-0.348,4.415,0.948,6.213s3.377,2.863,5.594,2.863h49.581
	C192.683,300.641,167.512,323.663,137.051,323.663z M170.243,214.861c14.041,9.48,23.823,24.793,25.871,42.432H156.1
	L170.243,214.861z M260.31,228.848c-3.808,0-6.896,3.088-6.896,6.896v21.549h-43.432c-2.226-23.728-15.808-44.199-35.247-55.908
	l5.211-15.634H306.64l14.583,19.444c-16.365,12.067-27.546,30.765-29.548,52.098h-24.469v-21.549
	C267.205,231.936,264.118,228.848,260.31,228.848z M329.494,216.224l30.803,41.069h-54.753
	C307.496,240.471,316.487,225.771,329.494,216.224z M364.606,323.663c-30.461,0-55.632-23.023-59.063-52.579h68.544
	c2.612,0,4.999-1.476,6.168-3.812c1.167-2.336,0.915-5.132-0.652-7.221l-38.022-50.697c7.085-2.986,14.865-4.641,23.024-4.641
	c32.794,0,59.475,26.681,59.475,59.475S397.4,323.663,364.606,323.663z"/>
<path style="fill:#273B7A;" d="M364.606,190.923c-11.271,0-21.952,2.563-31.501,7.13l-30.56-40.746h43.098
	c3.808,0,6.896-3.088,6.896-6.896s-3.088-6.896-6.896-6.896h-56.889c-2.612,0-4.999,1.476-6.168,3.812
	c-1.167,2.336-0.915,5.132,0.652,7.221l13.059,17.411h-41.444v13.791h51.788l14.583,19.444
	c-16.365,12.067-27.546,30.765-29.548,52.098h-24.469v-21.549c0-3.808-3.088-6.896-6.896-6.896c-2.234,0-4.198,1.079-5.458,2.725
	v67.955h5.458c3.808,0,6.896-3.088,6.896-6.896v-21.549h24.469c3.487,37.176,34.859,66.37,72.932,66.37
	c40.4,0,73.266-32.866,73.266-73.266S405.004,190.923,364.606,190.923z M329.494,216.224l30.803,41.069h-54.753
	C307.496,240.471,316.487,225.771,329.494,216.224z M364.606,323.663c-30.461,0-55.632-23.023-59.063-52.579h68.544
	c2.612,0,4.999-1.476,6.168-3.812c1.167-2.336,0.915-5.132-0.652-7.221l-38.022-50.697c7.085-2.986,14.865-4.641,23.024-4.641
	c32.794,0,59.475,26.681,59.475,59.475S397.4,323.663,364.606,323.663z"/>
<g>
</g>
<g>
</g>
<g>
</g>
<g>
</g>
<g>
</g>
<g>
</g>
<g>
</g>
<g>
</g>
<g>
</g>
<g>
</g>
<g>
</g>
<g>
</g>
<g>
</g>
<g>
</g>
<g>
</g>
</svg>
