<?xml version="1.0" encoding="iso-8859-1"?>
<!-- Generator: Adobe Illustrator 19.0.0, SVG Export Plug-In . SVG Version: 6.00 Build 0)  -->
<svg version="1.1" id="Layer_1" xmlns="http://www.w3.org/2000/svg" xmlns:xlink="http://www.w3.org/1999/xlink" x="0px" y="0px"
	 viewBox="0 0 506 506" style="enable-background:new 0 0 506 506;" xml:space="preserve">
<circle style="fill:#FFD05B;" cx="253" cy="253" r="253"/>
<path style="fill:#54C0EB;" d="M400.9,114.6L400.9,114.6h-25.5l0,0l0,0l0.2,237.1H145.9c-19.4,0-35.2,13.6-35.2,30.2
	c0,16.7,15.8,30.2,35.2,30.2h255.2V114.6H400.9z"/>
<g>
	<path style="fill:#84DBFF;" d="M135,96.3c-6.4,0-12.5,2.2-17,6.2c-4.6,4.1-7.2,9.5-7.2,15.3l0.1,260.7l4.1,0.1
		c0.7-13.9,13.7-24.8,29.7-24.8h12.2V96.3H135z"/>
	<rect x="152.8" y="96.3" style="fill:#84DBFF;" width="213.6" height="257.4"/>
</g>
<rect x="191.9" y="228.1" style="fill:#FFFFFF;" width="135.4" height="86.2"/>
<g>
	<rect x="207.4" y="267.4" style="fill:#ACB3BA;" width="103.1" height="8.8"/>
	<rect x="207.4" y="293.1" style="fill:#ACB3BA;" width="103.1" height="8.8"/>
</g>
<rect x="222.1" y="240.7" style="fill:#FF7058;" width="73.8" height="8.8"/>
<polygon style="fill:#F1543F;" points="184.1,96.3 184.1,187.8 209.1,160.8 234.2,187.8 234.2,96.3 "/>
<path style="fill:#FFFFFF;" d="M391,114.6L391,114.6h-24.6l0,0l0,0l0.2,235.1H144.7c-18.7,0-34,13.4-34,30c0,16.5,15.2,30,34,30h238
	v-295h8.3V114.6z"/>
<path style="fill:#54C0EB;" d="M391,114.6L391,114.6h-24.6l0,0l0,0l0.2,235.1H144.7c-18.7,0-34,13.4-34,30c0,16.5,15.2,30,34,30h238
	v-295h8.3V114.6z"/>
<path style="fill:#FFFFFF;" d="M144.7,405.6c-16.6,0-30-11.7-30-26s13.5-26,30-26h221.8l-0.2-239h16.5v291H144.7z"/>
<g>
	<rect x="147" y="96.3" style="fill:#54C0EB;" width="11.6" height="253.3"/>
	<path style="fill:#54C0EB;" d="M112.8,380.5c0,15.4,14.3,27.9,31.9,27.9l238.4-0.5v4.1l-238.4,0.5c-19.9,0-36-14.4-36-32v-0.9
		c0-17.7,16.2-32,36-32h221.9v4.1H144.7c-17.6,0-31.9,12.5-31.9,27.9C112.8,379.6,112.8,380.5,112.8,380.5z"/>
</g>
<g>
	<rect x="234.1" y="363.8" style="fill:#CED5E0;" width="130.1" height="4.4"/>
	<rect x="205.5" y="376.9" style="fill:#CED5E0;" width="158.7" height="4.4"/>
	<rect x="170.3" y="390" style="fill:#CED5E0;" width="193.9" height="4.4"/>
</g>
<g>
</g>
<g>
</g>
<g>
</g>
<g>
</g>
<g>
</g>
<g>
</g>
<g>
</g>
<g>
</g>
<g>
</g>
<g>
</g>
<g>
</g>
<g>
</g>
<g>
</g>
<g>
</g>
<g>
</g>
</svg>
