<?xml version="1.0" encoding="iso-8859-1"?>
<!-- Generator: Adobe Illustrator 19.0.0, SVG Export Plug-In . SVG Version: 6.00 Build 0)  -->
<svg version="1.1" id="Layer_1" xmlns="http://www.w3.org/2000/svg" xmlns:xlink="http://www.w3.org/1999/xlink" x="0px" y="0px"
	 viewBox="0 0 512 512" style="enable-background:new 0 0 512 512;" xml:space="preserve">
<polygon style="fill:#E09B2D;" points="261.855,108.348 250.145,108.348 250.145,1.922 261.855,27.889 "/>
<polygon style="fill:#F7B239;" points="343.819,281.191 343.819,281.191 0,281.191 0,510.078 222.819,510.078 222.819,510.065 
	289.181,510.065 289.181,510.078 512,510.078 512,281.191 "/>
<g>
	<rect y="283.794" style="fill:#E09B2D;" width="512" height="16.482"/>
	<polygon style="fill:#E09B2D;" points="176.197,510.065 176.197,510.078 152.771,510.078 152.771,290.824 169.821,290.824 
		169.821,510.065 	"/>
</g>
<g>
	<polygon style="fill:#F95428;" points="168.168,242.029 168.168,290.824 0,290.824 0,271.605 146.698,245.802 	"/>
	<polygon style="fill:#F95428;" points="512,271.605 512,290.824 343.819,290.824 343.819,242.029 	"/>
	<polygon style="fill:#F95428;" points="291.133,25.994 250.145,46.566 250.145,1.922 	"/>
	<polygon style="fill:#F95428;" points="327.007,133.742 316.714,133.742 195.273,133.742 184.98,133.742 256,80.393 	"/>
</g>
<polygon style="fill:#E54728;" points="184.98,133.742 255.974,80.406 226.931,133.742 "/>
<path style="fill:#F7B239;" d="M316.714,211.451v-81.612H195.273v81.612h-27.104v298.615h175.65V211.451H316.714z"/>
<rect x="367.891" y="411.169" style="fill:#E09B2D;" width="50.097" height="73.518"/>
<rect x="374.397" y="417.675" style="fill:#2BA5F7;" width="37.084" height="60.506"/>
<rect x="438.156" y="411.169" style="fill:#E09B2D;" width="50.097" height="73.518"/>
<rect x="444.662" y="417.675" style="fill:#2BA5F7;" width="37.084" height="60.506"/>
<rect x="438.156" y="317.482" style="fill:#E09B2D;" width="50.097" height="73.518"/>
<rect x="444.662" y="323.988" style="fill:#2BA5F7;" width="37.084" height="60.506"/>
<rect x="367.891" y="317.482" style="fill:#E09B2D;" width="50.097" height="73.518"/>
<rect x="374.397" y="323.988" style="fill:#2BA5F7;" width="37.084" height="60.506"/>
<rect x="228.024" y="155.26" style="fill:#E09B2D;" width="55.952" height="56.186"/>
<rect x="234.53" y="161.766" style="fill:#2BA5F7;" width="42.94" height="49.68"/>
<rect x="266.084" y="326.591" style="fill:#E09B2D;" width="50.084" height="73.518"/>
<rect x="272.59" y="333.097" style="fill:#2BA5F7;" width="37.071" height="60.506"/>
<rect x="266.084" y="236.82" style="fill:#E09B2D;" width="50.084" height="73.505"/>
<rect x="272.59" y="243.326" style="fill:#2BA5F7;" width="37.071" height="60.493"/>
<rect x="195.819" y="326.591" style="fill:#E09B2D;" width="50.097" height="73.518"/>
<rect x="202.325" y="333.097" style="fill:#2BA5F7;" width="37.084" height="60.506"/>
<rect x="195.819" y="236.82" style="fill:#E09B2D;" width="50.097" height="73.505"/>
<rect x="202.325" y="243.326" style="fill:#2BA5F7;" width="37.084" height="60.493"/>
<rect x="95.301" y="411.169" style="fill:#E09B2D;" width="50.097" height="73.518"/>
<rect x="101.807" y="417.675" style="fill:#2BA5F7;" width="37.084" height="60.506"/>
<rect x="95.301" y="317.482" style="fill:#E09B2D;" width="50.097" height="73.518"/>
<rect x="101.807" y="323.988" style="fill:#2BA5F7;" width="37.084" height="60.506"/>
<rect x="25.048" y="411.169" style="fill:#E09B2D;" width="50.084" height="73.518"/>
<rect x="31.554" y="417.675" style="fill:#2BA5F7;" width="37.071" height="60.506"/>
<rect x="25.048" y="317.482" style="fill:#E09B2D;" width="50.084" height="73.518"/>
<rect x="31.554" y="323.988" style="fill:#2BA5F7;" width="37.071" height="60.506"/>
<g>
	<rect x="195.273" y="133.088" style="fill:#E09B2D;" width="121.442" height="8.237"/>
	<rect x="216.313" y="420.954" style="fill:#E09B2D;" width="79.374" height="89.107"/>
</g>
<rect x="222.819" y="427.46" style="fill:#B27214;" width="66.362" height="82.601"/>
<polygon style="fill:#E54728;" points="168.168,242.029 168.168,290.824 146.698,290.824 146.698,245.802 "/>
<path style="fill:#F7B239;" d="M331.488,133.742H176.397l0,0c0-7.187,5.826-13.012,13.012-13.012h129.067
	C325.663,120.73,331.488,126.557,331.488,133.742L331.488,133.742z"/>
<g>
	<polygon style="fill:#FFFFFF;" points="31.554,384.498 68.626,355.794 68.626,384.498 	"/>
	<polygon style="fill:#FFFFFF;" points="31.554,478.185 68.626,449.481 68.626,478.185 	"/>
	<polygon style="fill:#FFFFFF;" points="101.82,478.185 138.891,449.481 138.891,478.185 	"/>
	<polygon style="fill:#FFFFFF;" points="101.82,384.498 138.891,355.794 138.891,384.498 	"/>
	<polygon style="fill:#FFFFFF;" points="374.41,384.498 411.482,355.794 411.482,384.498 	"/>
	<polygon style="fill:#FFFFFF;" points="374.41,478.185 411.482,449.481 411.482,478.185 	"/>
	<polygon style="fill:#FFFFFF;" points="444.675,478.185 481.747,449.481 481.747,478.185 	"/>
	<polygon style="fill:#FFFFFF;" points="444.675,384.498 481.747,355.794 481.747,384.498 	"/>
	<polygon style="fill:#FFFFFF;" points="202.338,393.607 239.41,364.902 239.41,393.607 	"/>
	<polygon style="fill:#FFFFFF;" points="272.59,393.607 309.662,364.902 309.662,393.607 	"/>
	<polygon style="fill:#FFFFFF;" points="272.59,303.823 309.662,275.119 309.662,303.823 	"/>
	<polygon style="fill:#FFFFFF;" points="202.338,303.823 239.41,275.119 239.41,303.823 	"/>
	<polygon style="fill:#FFFFFF;" points="240.398,211.451 277.47,182.746 277.47,211.451 	"/>
</g>
<g>
</g>
<g>
</g>
<g>
</g>
<g>
</g>
<g>
</g>
<g>
</g>
<g>
</g>
<g>
</g>
<g>
</g>
<g>
</g>
<g>
</g>
<g>
</g>
<g>
</g>
<g>
</g>
<g>
</g>
</svg>
