<?xml version="1.0" encoding="iso-8859-1"?>
<!-- Generator: Adobe Illustrator 19.0.0, SVG Export Plug-In . SVG Version: 6.00 Build 0)  -->
<svg version="1.1" id="Layer_1" xmlns="http://www.w3.org/2000/svg" xmlns:xlink="http://www.w3.org/1999/xlink" x="0px" y="0px"
	 viewBox="0 0 297 297" style="enable-background:new 0 0 297 297;" xml:space="preserve">
<g>
	<g>
		<circle style="fill:#FFCD02;" cx="148.5" cy="148.5" r="148.5"/>
	</g>
	<g>
		<path style="fill:#D3AC0B;" d="M248.97,101.018l-140.82,87.107l96.9,97.717c53.133-21.902,90.769-73.73,91.913-134.494
			L248.97,101.018z"/>
	</g>
	<g>
		<path style="fill:#D75E29;" d="M76.592,101.018l27.089,91.401h116.898c15.68,0,28.391-12.711,28.391-28.391v-63.01
			C248.97,101.018,76.592,101.018,76.592,101.018z"/>
	</g>
	<g>
		<g>
			<path style="fill:#C63C22;" d="M230.837,218.429H114.342c-1.91,0-3.611-1.205-4.245-3.007L58.951,69.983H49.5
				c-2.485,0-4.5-2.015-4.5-4.5s2.015-4.5,4.5-4.5h12.639c1.91,0,3.611,1.205,4.245,3.007l51.146,145.438h113.308
				c2.485,0,4.5,2.015,4.5,4.5S233.322,218.429,230.837,218.429z"/>
		</g>
	</g>
	<g>
		<path style="fill:#32373B;" d="M194.373,237.472c-3.9-12.515,8.39-23.766,20.999-17.881c2.707,1.264,4.91,3.466,6.174,6.174
			c5.885,12.61-5.365,24.9-17.881,20.999C199.205,245.375,195.762,241.932,194.373,237.472z"/>
	</g>
	<g>
		<circle style="fill:#32373B;" cx="129.379" cy="232.742" r="14.758"/>
	</g>
</g>
<g>
</g>
<g>
</g>
<g>
</g>
<g>
</g>
<g>
</g>
<g>
</g>
<g>
</g>
<g>
</g>
<g>
</g>
<g>
</g>
<g>
</g>
<g>
</g>
<g>
</g>
<g>
</g>
<g>
</g>
</svg>
