<?xml version="1.0" encoding="iso-8859-1"?>
<!-- Generator: Adobe Illustrator 19.0.0, SVG Export Plug-In . SVG Version: 6.00 Build 0)  -->
<svg version="1.1" id="Layer_1" xmlns="http://www.w3.org/2000/svg" xmlns:xlink="http://www.w3.org/1999/xlink" x="0px" y="0px"
	 viewBox="0 0 451.296 451.296" style="enable-background:new 0 0 451.296 451.296;" xml:space="preserve">
<circle style="fill:#EFC84A;" cx="225.648" cy="225.638" r="225.638"/>
<path style="opacity:0.1;enable-background:new    ;" d="M448.982,257.833L299.523,108.374l-53.849,13.657l-9.092-9.092H171.31v4.6
	v5.073l-9.673-9.673H96.365v4.6v216.199v4.6L208.617,450.59c5.629,0.42,11.295,0.706,17.031,0.706
	C339.34,451.296,433.352,367.203,448.982,257.833z"/>
<rect x="96.363" y="117.54" style="fill:#2D93BA;" width="65.275" height="220.774"/>
<rect x="96.363" y="112.937" style="fill:#27A2DB;" width="65.275" height="220.774"/>
<rect x="107.939" y="131.932" style="fill:#FFFFFF;" width="42.086" height="67.82"/>
<g>
	<rect x="114.585" y="139.93" style="fill:#EBF0F3;" width="28.831" height="4.506"/>
	<rect x="114.585" y="151.752" style="fill:#EBF0F3;" width="28.831" height="4.506"/>
	<rect x="114.585" y="163.589" style="fill:#EBF0F3;" width="28.831" height="4.506"/>
	<rect x="114.585" y="175.411" style="fill:#EBF0F3;" width="28.831" height="4.506"/>
	<rect x="114.585" y="187.264" style="fill:#EBF0F3;" width="28.831" height="4.506"/>
	<circle style="fill:#EBF0F3;" cx="128.982" cy="301.732" r="15.703"/>
</g>
<circle style="fill:#64798A;" cx="128.982" cy="301.732" r="12.928"/>
<rect x="171.325" y="117.54" style="fill:#D15241;" width="65.275" height="220.774"/>
<rect x="171.325" y="112.937" style="fill:#E56353;" width="65.275" height="220.774"/>
<rect x="182.901" y="131.932" style="fill:#FFFFFF;" width="42.086" height="67.82"/>
<g>
	<rect x="189.532" y="139.93" style="fill:#EBF0F3;" width="28.831" height="4.506"/>
	<rect x="189.532" y="151.752" style="fill:#EBF0F3;" width="28.831" height="4.506"/>
	<rect x="189.532" y="163.589" style="fill:#EBF0F3;" width="28.831" height="4.506"/>
	<rect x="189.532" y="175.411" style="fill:#EBF0F3;" width="28.831" height="4.506"/>
	<rect x="189.532" y="187.264" style="fill:#EBF0F3;" width="28.831" height="4.506"/>
	<circle style="fill:#EBF0F3;" cx="203.944" cy="301.732" r="15.703"/>
</g>
<circle style="fill:#64798A;" cx="203.944" cy="301.732" r="12.928"/>
<rect x="263.535" y="117.467" transform="matrix(-0.9693 0.2458 -0.2458 -0.9693 639.2635 375.9128)" style="fill:#3EA69B;" width="65.27" height="220.775"/>
<rect x="262.404" y="112.975" transform="matrix(-0.9693 0.2458 -0.2458 -0.9693 635.9376 367.3395)" style="fill:#44C4A1;" width="65.275" height="220.774"/>
<rect x="259.855" y="133.784" transform="matrix(-0.9693 0.2458 -0.2458 -0.9693 594.3994 261.1931)" style="fill:#FFFFFF;" width="42.087" height="67.82"/>
<g>
	
		<rect x="260.658" y="142.474" transform="matrix(-0.9693 0.2458 -0.2458 -0.9693 577.2837 217.39)" style="fill:#EBF0F3;" width="28.831" height="4.506"/>
	
		<rect x="263.583" y="153.946" transform="matrix(-0.9693 0.2458 -0.2458 -0.9693 585.8647 239.2627)" style="fill:#EBF0F3;" width="28.831" height="4.506"/>
	
		<rect x="266.481" y="165.426" transform="matrix(-0.9693 0.2458 -0.2458 -0.9693 594.3931 261.1629)" style="fill:#EBF0F3;" width="28.831" height="4.506"/>
	
		<rect x="269.376" y="176.902" transform="matrix(-0.9693 0.2458 -0.2458 -0.9693 602.9139 283.0511)" style="fill:#EBF0F3;" width="28.831" height="4.506"/>
	
		<rect x="272.291" y="188.371" transform="matrix(-0.9693 0.2458 -0.2458 -0.9693 611.4745 304.9214)" style="fill:#EBF0F3;" width="28.831" height="4.506"/>
	<ellipse style="fill:#EBF0F3;" cx="314.281" cy="299.42" rx="15.703" ry="15.703"/>
</g>
<ellipse style="fill:#64798A;" cx="314.281" cy="299.421" rx="12.928" ry="12.928"/>
<g>
</g>
<g>
</g>
<g>
</g>
<g>
</g>
<g>
</g>
<g>
</g>
<g>
</g>
<g>
</g>
<g>
</g>
<g>
</g>
<g>
</g>
<g>
</g>
<g>
</g>
<g>
</g>
<g>
</g>
</svg>
