<?xml version="1.0" encoding="iso-8859-1"?>
<!-- Generator: Adobe Illustrator 19.0.0, SVG Export Plug-In . SVG Version: 6.00 Build 0)  -->
<svg version="1.1" id="Layer_1" xmlns="http://www.w3.org/2000/svg" xmlns:xlink="http://www.w3.org/1999/xlink" x="0px" y="0px"
	 viewBox="0 0 496.158 496.158" style="enable-background:new 0 0 496.158 496.158;" xml:space="preserve">
<path style="fill:#EDC92F;" d="M248.082,0.003C111.07,0.003,0,111.063,0,248.085c0,137.001,111.07,248.07,248.082,248.07
	c137.006,0,248.076-111.069,248.076-248.07C496.158,111.062,385.088,0.003,248.082,0.003z"/>
<path style="fill:#CE7E42;" d="M45.339,188.311v33.073c0,46.551,64.759,84.287,144.645,84.287
	c79.885,0,144.645-37.736,144.645-84.287v-33.073L45.339,188.311L45.339,188.311z"/>
<ellipse style="fill:#DB8A53;" cx="189.979" cy="188.309" rx="144.65" ry="84.29"/>
<g style="opacity:0.5;">
	<path style="fill:#FFFFFF;" d="M294.033,142.68c-6.845-10.498-21.432-16.814-36.219-19.803
		c-20.59-4.161-40.945-7.375-67.831-11.318c-12.473-1.83-25.074,2.336-36.295,3.04c-34.528,2.165-61.094,12.688-78.046,37.958
		c-7.449,11.105-16.259,18.12-13.698,33.614c1.689,10.22,0.777,23.269,10.168,29.189c18.34,11.562,32.618,22.417,54.413,35.629
		c23.921,14.5,40.368,9.792,63.458,9.792c25.584,0,49.416-4.373,69.415-11.906c15.094-5.686,23.704-19.082,33.535-27.847
		c13.146-11.719,25.089-19.813,25.089-34.858C318.022,169.941,307.396,163.176,294.033,142.68z"/>
</g>
<g style="opacity:0.3;">
	<path style="fill:#FFFFFF;" d="M317.569,186.438c-1.689-10.22-0.777-23.27-10.168-29.189
		c-18.34-11.562-32.619-22.417-54.413-35.629c-23.921-14.501-40.368-9.793-63.458-9.793c-25.584,0-49.416,4.373-69.415,11.906
		c-15.094,5.686-23.704,19.082-33.535,27.847c-13.146,11.719-25.089,19.813-25.089,34.859c0,16.228,10.626,22.993,23.989,43.489
		c6.845,10.497,21.432,16.814,36.219,19.803c20.59,4.162,40.945,7.375,67.831,11.319c12.473,1.829,25.074-2.336,36.295-3.04
		c34.528-2.165,61.094-12.688,78.046-37.958C311.32,208.947,320.13,201.933,317.569,186.438z"/>
</g>
<g style="opacity:0.1;">
	<path style="fill:#FFFFFF;" d="M274.799,142.68c-5.583-10.498-17.479-16.815-29.539-19.803
		c-16.791-4.162-33.392-7.376-55.318-11.319c-10.173-1.829-20.448,2.336-29.6,3.041c-28.159,2.164-49.824,12.688-63.649,37.957
		c-6.075,11.105-13.26,18.12-11.172,33.614c1.379,10.219,0.635,23.269,8.293,29.188c14.957,11.562,26.602,22.417,44.375,35.629
		c19.51,14.5,32.922,9.792,51.753,9.792c20.865,0,40.301-4.372,56.61-11.905c12.31-5.687,19.332-19.082,27.35-27.848
		c10.721-11.719,20.461-19.813,20.461-34.858C294.362,169.941,285.696,163.176,274.799,142.68z"/>
</g>
<g>
	
		<ellipse transform="matrix(-0.395 -0.9187 0.9187 -0.395 74.3995 338.7614)" style="fill:#E07373;" cx="148.747" cy="144.882" rx="9.375" ry="8.302"/>
	
		<ellipse transform="matrix(-0.395 -0.9187 0.9187 -0.395 15.4576 341.2117)" style="fill:#E07373;" cx="120.083" cy="165.516" rx="9.374" ry="8.302"/>
	
		<ellipse transform="matrix(-0.395 -0.9187 0.9187 -0.395 136.4651 336.9759)" style="fill:#E07373;" cx="179.192" cy="123.553" rx="9.374" ry="8.302"/>
	
		<ellipse transform="matrix(-0.3951 -0.9186 0.9186 -0.3951 79.9382 387.3403)" style="fill:#E07373;" cx="167.494" cy="167.352" rx="9.374" ry="8.302"/>
	
		<ellipse transform="matrix(-0.395 -0.9187 0.9187 -0.395 20.9491 389.8252)" style="fill:#E07373;" cx="138.836" cy="188.014" rx="9.374" ry="8.302"/>
	
		<ellipse transform="matrix(-0.395 -0.9187 0.9187 -0.395 -39.5297 393.0109)" style="fill:#E07373;" cx="109.645" cy="209.522" rx="9.375" ry="8.302"/>
	
		<ellipse transform="matrix(-0.395 -0.9187 0.9187 -0.395 141.9399 385.5904)" style="fill:#E07373;" cx="197.937" cy="146.057" rx="9.374" ry="8.302"/>
	
		<ellipse transform="matrix(-0.3951 -0.9186 0.9186 -0.3951 84.4563 440.6742)" style="fill:#E07373;" cx="187.312" cy="192.531" rx="9.374" ry="8.302"/>
	
		<ellipse transform="matrix(-0.395 -0.9187 0.9187 -0.395 25.475 443.1473)" style="fill:#E07373;" cx="158.657" cy="213.185" rx="9.374" ry="8.302"/>
	
		<ellipse transform="matrix(-0.3951 -0.9186 0.9186 -0.3951 -34.947 446.3242)" style="fill:#E07373;" cx="129.471" cy="234.668" rx="9.374" ry="8.302"/>
	
		<ellipse transform="matrix(-0.3951 -0.9186 0.9186 -0.3951 146.528 438.8667)" style="fill:#E07373;" cx="217.753" cy="171.192" rx="9.374" ry="8.302"/>
	
		<ellipse transform="matrix(-0.3951 -0.9186 0.9186 -0.3951 199.5997 389.1779)" style="fill:#E07373;" cx="227.93" cy="128.874" rx="9.374" ry="8.302"/>
	
		<ellipse transform="matrix(-0.395 -0.9187 0.9187 -0.395 204.0651 442.5599)" style="fill:#E07373;" cx="247.758" cy="154.086" rx="9.374" ry="8.302"/>
	
		<ellipse transform="matrix(-0.3951 -0.9186 0.9186 -0.3951 146.8023 492.4203)" style="fill:#E07373;" cx="235.522" cy="197.878" rx="9.374" ry="8.302"/>
	
		<ellipse transform="matrix(-0.3951 -0.9186 0.9186 -0.3951 87.8684 494.883)" style="fill:#E07373;" cx="206.865" cy="218.512" rx="9.374" ry="8.302"/>
	
		<ellipse transform="matrix(-0.3951 -0.9186 0.9186 -0.3951 27.3759 498.075)" style="fill:#E07373;" cx="177.67" cy="240.025" rx="9.374" ry="8.302"/>
	
		<ellipse transform="matrix(-0.395 -0.9187 0.9187 -0.395 208.7946 490.6902)" style="fill:#E07373;" cx="265.971" cy="176.593" rx="9.375" ry="8.302"/>
	
		<ellipse transform="matrix(-0.395 -0.9187 0.9187 -0.395 210.4558 541.5977)" style="fill:#E07373;" cx="283.565" cy="201.5" rx="9.374" ry="8.302"/>
	
		<ellipse transform="matrix(-0.3951 -0.9186 0.9186 -0.3951 151.5949 543.9901)" style="fill:#E07373;" cx="254.896" cy="222.085" rx="9.374" ry="8.302"/>
	
		<ellipse transform="matrix(-0.395 -0.9187 0.9187 -0.395 91.0478 547.2117)" style="fill:#E07373;" cx="225.709" cy="243.626" rx="9.374" ry="8.302"/>
	
		<ellipse transform="matrix(-0.395 -0.9187 0.9187 -0.395 256.1305 491.4872)" style="fill:#E07373;" cx="289.902" cy="161.405" rx="9.374" ry="8.302"/>
</g>
<g>
	
		<ellipse transform="matrix(-0.3951 -0.9186 0.9186 -0.3951 118.4282 517.8889)" style="fill:#FCFCFC;" cx="229.72" cy="219.954" rx="9.374" ry="8.303"/>
	
		<ellipse transform="matrix(-0.395 -0.9187 0.9187 -0.395 177.3177 515.4682)" style="fill:#FCFCFC;" cx="258.392" cy="199.347" rx="9.374" ry="8.302"/>
	
		<ellipse transform="matrix(-0.3951 -0.9186 0.9186 -0.3951 56.3754 519.6583)" style="fill:#FCFCFC;" cx="199.276" cy="241.269" rx="9.375" ry="8.302"/>
	
		<ellipse transform="matrix(-0.3951 -0.9186 0.9186 -0.3951 112.9577 469.2659)" style="fill:#FCFCFC;" cx="210.976" cy="197.444" rx="9.374" ry="8.303"/>
	
		<ellipse transform="matrix(-0.3951 -0.9186 0.9186 -0.3951 171.8874 466.8004)" style="fill:#FCFCFC;" cx="239.629" cy="176.809" rx="9.374" ry="8.302"/>
	
		<ellipse transform="matrix(-0.395 -0.9187 0.9187 -0.395 232.3092 463.6718)" style="fill:#FCFCFC;" cx="268.832" cy="155.341" rx="9.374" ry="8.302"/>
	
		<ellipse transform="matrix(-0.3951 -0.9186 0.9186 -0.3951 50.886 471.0735)" style="fill:#FCFCFC;" cx="180.535" cy="218.783" rx="9.375" ry="8.302"/>
	
		<ellipse transform="matrix(-0.395 -0.9187 0.9187 -0.395 108.3804 415.959)" style="fill:#FCFCFC;" cx="191.157" cy="172.292" rx="9.375" ry="8.302"/>
	
		<ellipse transform="matrix(-0.395 -0.9187 0.9187 -0.395 167.3046 413.5354)" style="fill:#FCFCFC;" cx="219.821" cy="151.678" rx="9.375" ry="8.302"/>
	
		<ellipse transform="matrix(-0.395 -0.9187 0.9187 -0.395 227.7956 410.3313)" style="fill:#FCFCFC;" cx="249.011" cy="130.157" rx="9.375" ry="8.302"/>
	
		<ellipse transform="matrix(-0.395 -0.9187 0.9187 -0.395 46.316 417.7638)" style="fill:#FCFCFC;" cx="160.719" cy="193.631" rx="9.375" ry="8.302"/>
	
		<ellipse transform="matrix(-0.395 -0.9187 0.9187 -0.395 -6.7752 467.441)" style="fill:#FCFCFC;" cx="150.531" cy="235.951" rx="9.375" ry="8.302"/>
	
		<ellipse transform="matrix(-0.395 -0.9187 0.9187 -0.395 -11.2806 414.1061)" style="fill:#FCFCFC;" cx="130.716" cy="210.767" rx="9.374" ry="8.302"/>
	
		<ellipse transform="matrix(-0.3951 -0.9186 0.9186 -0.3951 46.0983 364.1667)" style="fill:#FCFCFC;" cx="142.944" cy="166.906" rx="9.374" ry="8.302"/>
	
		<ellipse transform="matrix(-0.3951 -0.9186 0.9186 -0.3951 105.0317 361.726)" style="fill:#FCFCFC;" cx="171.608" cy="146.283" rx="9.374" ry="8.302"/>
	
		<ellipse transform="matrix(-0.395 -0.9187 0.9187 -0.395 165.4601 358.5757)" style="fill:#FCFCFC;" cx="200.802" cy="124.805" rx="9.374" ry="8.302"/>
	
		<ellipse transform="matrix(-0.395 -0.9187 0.9187 -0.395 -16.0109 365.9953)" style="fill:#FCFCFC;" cx="112.509" cy="188.27" rx="9.374" ry="8.302"/>
	
		<ellipse transform="matrix(-0.395 -0.9187 0.9187 -0.395 -17.6834 315.0987)" style="fill:#FCFCFC;" cx="94.914" cy="163.372" rx="9.373" ry="8.302"/>
	
		<ellipse transform="matrix(-0.3951 -0.9186 0.9186 -0.3951 41.2904 312.6291)" style="fill:#FCFCFC;" cx="123.573" cy="142.72" rx="9.375" ry="8.303"/>
	
		<ellipse transform="matrix(-0.395 -0.9187 0.9187 -0.395 101.7401 309.4644)" style="fill:#FCFCFC;" cx="152.77" cy="121.231" rx="9.374" ry="8.302"/>
	
		<ellipse transform="matrix(-0.395 -0.9187 0.9187 -0.395 -63.3488 365.177)" style="fill:#FCFCFC;" cx="88.571" cy="203.448" rx="9.374" ry="8.302"/>
</g>
<path style="fill:#FFC688;" d="M438.456,311.198c0,0-2.678-3.75-13.928-12.32c-11.248-8.571-86.777-5.892-102.848,0
	s2.143,59.459,2.143,59.459l0.973,33.104c12.419-2.571-11.15-48.638,17.24-62.565c11.188-5.489,33.33-5.84,54.103-0.536
	c20.771,5.304,40.476,16.923,45.526,9.065L438.456,311.198z"/>
<path style="fill:#CE7E42;" d="M161.53,274.772v33.073c0,46.551,64.759,84.288,144.645,84.288c6.31,0,12.524-0.238,18.621-0.694
	l-0.973-33.104c0,0-18.213-53.567-2.143-59.459s91.6-8.571,102.848,0c11.25,8.571,13.928,12.32,13.928,12.32l3.18,25.973
	l0.029,0.234c0,0,0,0,0.239-0.375c5.795-9.073,8.915-18.923,8.915-29.184v-33.073L161.53,274.772L161.53,274.772z"/>
<path style="fill:#DB8A53;" d="M306.175,190.485c-79.886,0-144.645,37.736-144.645,84.287s64.759,84.287,144.645,84.287
	c5.977,0,11.865-0.215,17.652-0.626l-0.004-0.097c0,0-18.213-53.567-2.143-59.459s91.6-8.571,102.848,0
	c7.799,5.941,11.474,9.563,12.996,11.227c8.528-10.747,13.295-22.715,13.295-35.332
	C450.819,228.222,386.059,190.485,306.175,190.485z"/>
<g style="opacity:0.5;">
	<path style="fill:#FFFFFF;" d="M410.225,229.141c-6.845-10.498-21.432-16.814-36.219-19.803
		c-20.59-4.161-40.945-7.375-67.831-11.318c-12.473-1.83-25.074,2.336-36.295,3.04c-34.528,2.165-61.094,12.688-78.046,37.958
		c-7.449,11.105-16.259,18.12-13.698,33.614c1.689,10.219,0.777,23.269,10.168,29.189c18.34,11.562,32.618,22.417,54.413,35.629
		c23.921,14.5,40.368,9.792,63.458,9.792c4.799,0,9.536-0.154,14.197-0.454c-4.35-16.094-9.982-43.77,1.309-47.91
		c14.85-5.445,80.463-8.144,99.222-1.761c7.729-7.167,13.312-14.203,13.312-24.487C434.214,256.402,423.588,249.637,410.225,229.141
		z"/>
</g>
<g style="opacity:0.3;">
	<path style="fill:#FFFFFF;" d="M433.761,272.899c-1.689-10.22-0.777-23.27-10.168-29.189
		c-18.34-11.562-32.618-22.417-54.413-35.629c-23.921-14.501-40.368-9.793-63.458-9.793c-25.584,0-49.416,4.373-69.415,11.906
		c-15.094,5.686-23.704,19.082-33.535,27.847c-13.146,11.719-25.089,19.813-25.089,34.859c0,16.228,10.626,22.993,23.989,43.489
		c6.845,10.497,21.432,16.814,36.219,19.803c20.59,4.162,40.945,7.375,67.831,11.318c4.955,0.727,9.928,0.502,14.828-0.071
		c-4.37-15.986-10.314-44.365,1.131-48.562c16.07-5.892,91.6-8.571,102.848,0c0.241,0.183,0.455,0.352,0.688,0.531
		C430.935,291.77,435.738,284.861,433.761,272.899z"/>
</g>
<g style="opacity:0.1;">
	<path style="fill:#FFFFFF;" d="M390.99,229.141c-5.583-10.498-17.479-16.814-29.539-19.803
		c-16.791-4.162-33.392-7.376-55.318-11.319c-10.173-1.829-20.448,2.336-29.6,3.04c-28.159,2.165-49.824,12.688-63.649,37.957
		c-6.075,11.105-13.26,18.12-11.171,33.614c1.378,10.219,0.634,23.269,8.292,29.188c14.957,11.562,26.602,22.417,44.375,35.629
		c19.51,14.5,32.922,9.792,51.753,9.792c4.81,0,9.538-0.243,14.175-0.692c-4.339-16.128-9.863-43.551,1.373-47.671
		c11.506-4.218,53.483-6.789,80.534-4.764c4.956-6.192,8.339-12.634,8.339-21.483C410.554,256.402,401.888,249.637,390.99,229.141z"
		/>
</g>
<g>
	
		<ellipse transform="matrix(-0.395 -0.9187 0.9187 -0.395 157.0525 566.1247)" style="fill:#48A1AF;" cx="264.939" cy="231.348" rx="9.375" ry="8.302"/>
	
		<ellipse transform="matrix(-0.395 -0.9187 0.9187 -0.395 98.1312 568.5807)" style="fill:#48A1AF;" cx="236.287" cy="251.978" rx="9.374" ry="8.302"/>
	
		<ellipse transform="matrix(-0.395 -0.9187 0.9187 -0.395 219.1184 564.3514)" style="fill:#48A1AF;" cx="295.388" cy="210.025" rx="9.374" ry="8.302"/>
	
		<ellipse transform="matrix(-0.3951 -0.9186 0.9186 -0.3951 162.6093 614.6873)" style="fill:#48A1AF;" cx="283.679" cy="253.807" rx="9.374" ry="8.302"/>
	
		<ellipse transform="matrix(-0.3951 -0.9186 0.9186 -0.3951 103.6755 617.15)" style="fill:#48A1AF;" cx="255.023" cy="274.442" rx="9.374" ry="8.302"/>
	
		<ellipse transform="matrix(-0.395 -0.9187 0.9187 -0.395 43.1135 620.3678)" style="fill:#48A1AF;" cx="225.831" cy="295.988" rx="9.375" ry="8.302"/>
	
		<ellipse transform="matrix(-0.395 -0.9187 0.9187 -0.395 224.6135 612.9593)" style="fill:#48A1AF;" cx="314.141" cy="232.519" rx="9.374" ry="8.302"/>
	
		<ellipse transform="matrix(-0.3951 -0.9186 0.9186 -0.3951 167.1372 668.0276)" style="fill:#48A1AF;" cx="303.505" cy="278.987" rx="9.374" ry="8.302"/>
	
		<ellipse transform="matrix(-0.395 -0.9187 0.9187 -0.395 108.1182 670.5041)" style="fill:#48A1AF;" cx="274.842" cy="299.651" rx="9.374" ry="8.302"/>
	
		<ellipse transform="matrix(-0.3951 -0.9186 0.9186 -0.3951 47.72 673.6684)" style="fill:#48A1AF;" cx="245.653" cy="321.123" rx="9.374" ry="8.302"/>
	
		<ellipse transform="matrix(-0.3951 -0.9186 0.9186 -0.3951 229.1949 666.2109)" style="fill:#48A1AF;" cx="333.935" cy="257.647" rx="9.374" ry="8.302"/>
	
		<ellipse transform="matrix(-0.3951 -0.9186 0.9186 -0.3951 282.2693 616.5422)" style="fill:#48A1AF;" cx="344.12" cy="215.339" rx="9.374" ry="8.302"/>
	
		<ellipse transform="matrix(-0.395 -0.9187 0.9187 -0.395 286.7089 669.9371)" style="fill:#48A1AF;" cx="363.951" cy="240.561" rx="9.374" ry="8.302"/>
	
		<ellipse transform="matrix(-0.395 -0.9187 0.9187 -0.395 229.3818 719.8573)" style="fill:#48A1AF;" cx="351.725" cy="284.398" rx="9.374" ry="8.302"/>
	
		<ellipse transform="matrix(-0.3951 -0.9186 0.9186 -0.3951 110.0631 725.4309)" style="fill:#48A1AF;" cx="293.867" cy="326.479" rx="9.374" ry="8.302"/>
	
		<ellipse transform="matrix(-0.3951 -0.9186 0.9186 -0.3951 291.5381 717.9734)" style="fill:#48A1AF;" cx="382.149" cy="263.003" rx="9.374" ry="8.302"/>
	
		<ellipse transform="matrix(-0.3951 -0.9186 0.9186 -0.3951 310.2733 760.8317)" style="fill:#48A1AF;" cx="405.627" cy="278.264" rx="9.374" ry="8.302"/>
	
		<ellipse transform="matrix(-0.395 -0.9187 0.9187 -0.395 338.7673 718.8599)" style="fill:#48A1AF;" cx="406.089" cy="247.881" rx="9.374" ry="8.302"/>
</g>
<g>
	
		<ellipse transform="matrix(-0.3951 -0.9186 0.9186 -0.3951 260.7159 734.0248)" style="fill:#FCFCFC;" cx="372.022" cy="281.176" rx="9.374" ry="8.302"/>
	
		<ellipse transform="matrix(-0.3951 -0.9186 0.9186 -0.3951 195.6247 696.6101)" style="fill:#FCFCFC;" cx="327.159" cy="283.899" rx="9.374" ry="8.303"/>
	
		<ellipse transform="matrix(-0.3951 -0.9186 0.9186 -0.3951 254.5557 694.1639)" style="fill:#FCFCFC;" cx="355.819" cy="263.274" rx="9.374" ry="8.302"/>
	
		<ellipse transform="matrix(-0.395 -0.9187 0.9187 -0.395 314.9622 691.035)" style="fill:#FCFCFC;" cx="385.024" cy="241.807" rx="9.374" ry="8.302"/>
	
		<ellipse transform="matrix(-0.3951 -0.9186 0.9186 -0.3951 133.5761 698.4129)" style="fill:#FCFCFC;" cx="296.728" cy="305.229" rx="9.375" ry="8.302"/>
	
		<ellipse transform="matrix(-0.395 -0.9187 0.9187 -0.395 191.0228 643.3354)" style="fill:#FCFCFC;" cx="307.348" cy="258.768" rx="9.375" ry="8.302"/>
	
		<ellipse transform="matrix(-0.395 -0.9187 0.9187 -0.395 249.9575 640.8987)" style="fill:#FCFCFC;" cx="336.013" cy="238.144" rx="9.375" ry="8.302"/>
	
		<ellipse transform="matrix(-0.395 -0.9187 0.9187 -0.395 310.44 637.7074)" style="fill:#FCFCFC;" cx="365.204" cy="216.632" rx="9.375" ry="8.302"/>
	
		<ellipse transform="matrix(-0.395 -0.9187 0.9187 -0.395 128.9704 645.128)" style="fill:#FCFCFC;" cx="276.912" cy="280.097" rx="9.375" ry="8.302"/>
	
		<ellipse transform="matrix(-0.395 -0.9187 0.9187 -0.395 75.8727 694.821)" style="fill:#FCFCFC;" cx="266.726" cy="322.427" rx="9.375" ry="8.302"/>
	
		<ellipse transform="matrix(-0.395 -0.9187 0.9187 -0.395 71.3766 641.4722)" style="fill:#FCFCFC;" cx="246.912" cy="297.233" rx="9.374" ry="8.302"/>
	
		<ellipse transform="matrix(-0.3951 -0.9186 0.9186 -0.3951 128.7648 591.5328)" style="fill:#FCFCFC;" cx="259.134" cy="253.373" rx="9.374" ry="8.302"/>
	
		<ellipse transform="matrix(-0.3951 -0.9186 0.9186 -0.3951 187.6987 589.0701)" style="fill:#FCFCFC;" cx="287.79" cy="232.739" rx="9.374" ry="8.302"/>
	
		<ellipse transform="matrix(-0.3951 -0.9186 0.9186 -0.3951 248.1772 585.869)" style="fill:#FCFCFC;" cx="316.975" cy="211.227" rx="9.374" ry="8.302"/>
	
		<ellipse transform="matrix(-0.395 -0.9187 0.9187 -0.395 66.6323 593.3522)" style="fill:#FCFCFC;" cx="228.695" cy="274.735" rx="9.374" ry="8.302"/>
	
		<ellipse transform="matrix(-0.395 -0.9187 0.9187 -0.395 64.9738 542.4647)" style="fill:#FCFCFC;" cx="211.109" cy="249.838" rx="9.373" ry="8.302"/>
	
		<ellipse transform="matrix(-0.3951 -0.9186 0.9186 -0.3951 123.963 539.9771)" style="fill:#FCFCFC;" cx="239.759" cy="229.176" rx="9.375" ry="8.303"/>
	
		<ellipse transform="matrix(-0.3951 -0.9186 0.9186 -0.3951 183.6804 541.3031)" style="fill:#FCFCFC;" cx="270.062" cy="210.175" rx="6.649" ry="8.302"/>
	
		<ellipse transform="matrix(-0.3951 -0.9186 0.9186 -0.3951 19.3741 592.5625)" style="fill:#FCFCFC;" cx="204.786" cy="289.902" rx="9.375" ry="8.302"/>
</g>
<g>
</g>
<g>
</g>
<g>
</g>
<g>
</g>
<g>
</g>
<g>
</g>
<g>
</g>
<g>
</g>
<g>
</g>
<g>
</g>
<g>
</g>
<g>
</g>
<g>
</g>
<g>
</g>
<g>
</g>
</svg>
