<?xml version="1.0" encoding="iso-8859-1"?>
<!-- Generator: Adobe Illustrator 19.0.0, SVG Export Plug-In . SVG Version: 6.00 Build 0)  -->
<svg version="1.1" id="Layer_1" xmlns="http://www.w3.org/2000/svg" xmlns:xlink="http://www.w3.org/1999/xlink" x="0px" y="0px"
	 viewBox="0 0 511.999 511.999" style="enable-background:new 0 0 511.999 511.999;" xml:space="preserve">
<path style="fill:#E87E04;" d="M493.205,325.964H423.91c-10.38,0-18.795-8.415-18.795-18.795v-69.295
	c0-10.38,8.415-18.795,18.795-18.795c48.573,0,88.089,39.516,88.089,88.089C511.999,317.549,503.584,325.964,493.205,325.964z"/>
<path style="fill:#F2C500;" d="M364.956,374.332H199.664c-8.969,0-16.688-6.338-18.435-15.135
	c-8.747-44.052-72.295-44.125-81.034-0.009c-1.743,8.801-9.464,15.142-18.436,15.142h-62.95c-13.132,0-22.223-13.158-17.581-25.44
	l41.423-109.585c2.764-7.311,9.764-12.149,17.581-12.149H221.19c10.38,0,18.795,8.415,18.795,18.795
	c0,11.427,8.772,8.57,74.339,8.57c4.719,0,8.558-3.844,8.558-8.57v-46.949c0-10.38,8.415-18.795,18.795-18.795h81.481
	c9.385,0,17.331,6.923,18.617,16.219c1.245,9.003,0.93,4.576,0.93,110.746c0,10.38-8.415,18.795-18.795,18.795
	c-19.672,0-36.711,13.968-40.514,33.214C381.655,367.985,373.931,374.332,364.956,374.332z"/>
<g>
	<path style="fill:#F59D00;" d="M441.774,196.427c-1.286-9.296-9.233-16.219-18.617-16.219h-81.481
		c-10.38,0-18.795,8.415-18.795,18.795v46.949c0,4.725-3.839,8.57-8.558,8.57H256.01v119.81h108.946
		c8.975,0,16.698-6.346,18.438-15.151c3.804-19.246,20.842-33.214,40.514-33.214c10.38,0,18.795-8.415,18.795-18.795
		C442.703,201.144,443.027,205.479,441.774,196.427z"/>
	<path style="fill:#F59D00;" d="M186.738,264.75H94.687c-29.362,0-53.25-23.888-53.25-53.25s23.888-53.25,53.25-53.25h92.051
		c29.362,0,53.25,23.888,53.25,53.25S216.1,264.75,186.738,264.75z"/>
</g>
<path style="fill:#808285;" d="M140.72,446.169c-49.79,0-87.072-45.514-77.395-94.293c7.285-36.792,39.835-63.501,77.395-63.501
	c37.537,0,70.079,26.706,77.38,63.501C227.787,400.694,190.443,446.169,140.72,446.169z"/>
<path style="fill:#D55400;" d="M331.845,143.858l-70.37-43.215c-8.846-5.433-11.613-17.005-6.181-25.851
	c5.433-8.844,17.005-11.61,25.851-6.181l70.37,43.215C372.707,124.84,353.007,156.851,331.845,143.858z"/>
<path style="fill:#6D6E71;" d="M423.91,446.169c-49.79,0-87.072-45.514-77.395-94.293c7.285-36.792,39.836-63.501,77.395-63.501
	c43.508,0,78.905,35.397,78.905,78.905C502.815,410.78,467.418,446.169,423.91,446.169z"/>
<path style="fill:#E87E04;" d="M441.784,196.499c-6.701-49.86-49.738-87.46-100.108-87.46c-10.38,0-18.795,8.415-18.795,18.795
	c0,10.368,0,79.159,0,89.964c44.754,0,86.106,0,100.276,0C434.53,217.797,443.297,207.76,441.784,196.499z"/>
<g>
</g>
<g>
</g>
<g>
</g>
<g>
</g>
<g>
</g>
<g>
</g>
<g>
</g>
<g>
</g>
<g>
</g>
<g>
</g>
<g>
</g>
<g>
</g>
<g>
</g>
<g>
</g>
<g>
</g>
</svg>
